<svg width="952" height="291" viewBox="0 0 952 291" fill="none" xmlns="http://www.w3.org/2000/svg">
<path d="M1 153.844C1 153.844 51.7027 72.7791 98.5 35.3441C284.366 -113.337 454.988 272.933 683.5 206.344C802.693 171.611 951.5 35.3441 951.5 35.3441" stroke="#E5E5E5"/>
<path d="M1 191.981C1 191.981 51.7027 110.916 98.5 73.4809C284.366 -75.2 454.988 311.07 683.5 244.481C802.693 209.748 951.5 73.4809 951.5 73.4809" stroke="#E5E5E5"/>
<path d="M1 230.118C1 230.118 51.7027 149.053 98.5 111.618C284.366 -37.0633 454.988 349.207 683.5 282.618C802.693 247.884 951.5 111.618 951.5 111.618" stroke="#E5E5E5"/>
</svg>
